<?xml version="1.0" encoding="UTF-8"?>
<svg width="48" height="48" version="1.1" viewBox="0 0 100 100" xmlns="http://www.w3.org/2000/svg" fill="#144939">
 <g>
  <path d="m96.875 57.812c0-0.41406-0.16406-0.8125-0.45703-1.1055s-0.69141-0.45703-1.1055-0.45703h-12.5c-0.86328 0-1.5625 0.69922-1.5625 1.5625v6.25c0.003906 1.6953 0.57031 3.3438 1.6094 4.6875h-0.046875c-0.48047-0.003906-0.9375 0.21484-1.2344 0.59375-0.29297 0.38281-0.39453 0.875-0.28125 1.3438l1.0781 4.3125h-4.75l-5.3594-13.375 0.85938-6.5156c0.10938-1.3086-0.32422-2.6016-1.2031-3.5781-0.44922-0.49219-0.99609-0.87891-1.6094-1.1406v-1.9531c-0.007812-2.5859-2.1016-4.6797-4.6875-4.6875h-9.375v-4.6094c4.7773-2.375 7.8008-7.2422 7.8125-12.578v-7.9688c3.6367-0.74609 6.2461-3.9453 6.25-7.6562v-6.25c0-0.41406-0.16406-0.8125-0.45703-1.1055s-0.69141-0.45703-1.1055-0.45703h-25c-4.3164 0-7.8125 3.4961-7.8125 7.8125v15.625c0.011719 5.3359 3.0352 10.203 7.8125 12.578v4.6094h-9.375c-2.5859 0.007812-4.6797 2.1016-4.6875 4.6875v1.9531c-0.61328 0.26172-1.1602 0.64844-1.6094 1.1406-0.89062 0.99219-1.3203 2.3125-1.1875 3.6406l0.84375 6.4531-5.3594 13.375h-3.625v-1.5625c-0.007812-2.5859-2.1016-4.6797-4.6875-4.6875h-3.125c-2.5859 0.007812-4.6797 2.1016-4.6875 4.6875v1.5625h-1.5625c-0.86328 0-1.5625 0.69922-1.5625 1.5625v9.375c0 0.41406 0.16406 0.8125 0.45703 1.1055s0.69141 0.45703 1.1055 0.45703h1.5625v7.8125c0 0.41406 0.16406 0.8125 0.45703 1.1055s0.69141 0.45703 1.1055 0.45703h84.375c0.41406 0 0.8125-0.16406 1.1055-0.45703s0.45703-0.69141 0.45703-1.1055v-7.8125h1.5625c0.41406 0 0.8125-0.16406 1.1055-0.45703s0.45703-0.69141 0.45703-1.1055v-9.375c-0.003906-0.69531-0.46875-1.3047-1.1406-1.4844l1.0938-4.3906c0.11328-0.46875 0.011719-0.96094-0.28125-1.3438-0.29688-0.37891-0.75391-0.59766-1.2344-0.59375h-0.046875c1.0391-1.3438 1.6055-2.9922 1.6094-4.6875zm-25.438 10.156 2.8125 7.0312h-3.7188zm-32.375-57.031c0.007812-2.5859 2.1016-4.6797 4.6875-4.6875h23.438v4.6875c-0.007812 2.5859-2.1016 4.6797-4.6875 4.6875h-23.438zm0 15.625v-7.8125h21.875v7.8125c0 6.0391-4.8984 10.938-10.938 10.938s-10.938-4.8984-10.938-10.938zm14.062 13.703v3.4844h-6.25v-3.4844c2.0547 0.48047 4.1953 0.48047 6.25 0zm-20.312 8.1719c0-0.86328 0.69922-1.5625 1.5625-1.5625h31.25c0.41406 0 0.8125 0.16406 1.1055 0.45703s0.45703 0.69141 0.45703 1.1055v1.5625h-34.375zm-2.4219 5.2031c0.29688-0.32812 0.71484-0.51562 1.1562-0.51562h36.906c0.44141 0 0.85938 0.1875 1.1562 0.51562 0.28125 0.30469 0.42969 0.71094 0.40625 1.125l-2.6406 20.234h-34.75l-2.6406-20.172c-0.035156-0.43359 0.11328-0.86328 0.40625-1.1875zm-1.8438 14.328 0.92188 7.0312h-3.7188zm-19.172 5.4688c0-0.86328 0.69922-1.5625 1.5625-1.5625h3.125c0.41406 0 0.8125 0.16406 1.1055 0.45703s0.45703 0.69141 0.45703 1.1055v1.5625h-6.25zm81.25 20.312h-81.25v-6.25h81.25zm3.125-9.375h-87.5v-6.25h87.5zm-8.9375-12.5h8.5l-0.78125 3.125h-6.9375zm8.9375-7.8125c0 2.5898-2.0977 4.6875-4.6875 4.6875s-4.6875-2.0977-4.6875-4.6875v-4.6875h9.375z"/>
  <path d="m83.719 53.125h3.125c-0.007812-0.33984 0.12109-0.66797 0.36328-0.91016 1.2617-1.6055 1.2617-3.8672 0-5.4688-0.48438-0.51172-0.48438-1.3086 0-1.8203 0.625-0.77344 0.96094-1.7422 0.94922-2.7383h-3.125c0.007812 0.33984-0.125 0.66797-0.36328 0.90625-1.2656 1.6055-1.2656 3.8672 0 5.4688 0.48438 0.51172 0.48438 1.3125 0 1.8242-0.625 0.77344-0.96094 1.7422-0.94922 2.7383z"/>
  <path d="m89.969 53.125h3.125c-0.007812-0.33984 0.12109-0.66797 0.36328-0.91016 1.2617-1.6055 1.2617-3.8672 0-5.4688-0.48438-0.51172-0.48438-1.3086 0-1.8203 0.625-0.77344 0.96094-1.7422 0.94922-2.7383h-3.125c0.007812 0.33984-0.125 0.66797-0.36328 0.90625-1.2656 1.6055-1.2656 3.8672 0 5.4688 0.48438 0.51172 0.48438 1.3125 0 1.8242-0.625 0.77344-0.96094 1.7422-0.94922 2.7383z"/>
  <path d="m48.438 62.5h3.125v3.125h-3.125z"/>
 </g>
</svg>
