<?xml version="1.0" encoding="UTF-8"?>
<svg width="48" height="48" version="1.1" viewBox="0 0 100 100" xmlns="http://www.w3.org/2000/svg" fill="#484914">
 <g>
  <path d="m94.805 17.438c-0.31641-3.625-2.0273-6.9141-4.8164-9.2539-2.4492-2.0547-5.5586-3.1875-8.7539-3.1875-4.043 0-7.8516 1.7734-10.445 4.8672l-3.3672 4.0117-3.3633-4.0078c-0.019532-0.023438-0.035156-0.042969-0.058594-0.0625-2.5938-3.0547-6.3789-4.8047-10.395-4.8047-3.1953 0-6.3008 1.1328-8.75 3.1875-2.7891 2.3398-4.5 5.625-4.8164 9.2539-0.31641 3.6055 0.78516 7.1133 3.0938 9.8945 0.015626 0.023437 0.035157 0.042968 0.050782 0.0625l7.7656 9.2539c0.011719 0.015625 0.023437 0.027344 0.035156 0.042968l14.934 17.801 0.003906 10.266c0 3.1641-2.5742 5.7383-5.7383 5.7383h-8.4297c0.30469-0.77344 0.46875-1.6055 0.46875-2.4648 0-2.2891-1.1602-4.3594-2.9922-5.5938 0.35547-0.82422 0.57031-1.7227 0.57031-2.668 0-3.1758-2.2227-5.8438-5.1953-6.5273v-0.078125-0.011719c0-3.1133-2.5352-5.6484-5.6484-5.6484-0.25391 0-0.50781 0.019532-0.75781 0.054688-0.77734-2.1953-2.8711-3.7695-5.3281-3.7695-1.6602 0-3.1523 0.72656-4.1875 1.875-1.0352-1.1484-2.5273-1.875-4.1875-1.875-2.457 0-4.5508 1.5742-5.3242 3.7695-0.25-0.035156-0.50391-0.054688-0.75781-0.054688-3.1133 0-5.6484 2.5352-5.6484 5.6484 0 0.007812 0.003906 0.015625 0.003906 0.019531v0.066407c-2.9727 0.68359-5.1953 3.3516-5.1953 6.5273 0 0.94531 0.21484 1.8438 0.57031 2.668-1.8359 1.2344-2.9922 3.3086-2.9922 5.5977 0 1.4688 0.47656 2.8203 1.2734 3.9297-0.32031 0.83984-0.49219 1.7383-0.49219 2.6445 0 3.4062 2.3047 6.2852 5.4375 7.1562-0.003906 0.007813-0.007813 0.019531-0.011719 0.027344-0.082031 0.17969-0.15625 0.36328-0.21875 0.55078-0.011719 0.027344-0.019531 0.054688-0.03125 0.082031-0.0625 0.18359-0.11328 0.37109-0.15625 0.5625-0.007813 0.03125-0.019531 0.0625-0.023437 0.097657-0.039063 0.18359-0.070313 0.37109-0.09375 0.5625-0.003907 0.039062-0.011719 0.074218-0.015626 0.10937-0.023437 0.22656-0.039062 0.45313-0.039062 0.68359 0 3.5273 2.8672 6.3945 6.3945 6.3945 0.53125 0 1.0547-0.066407 1.5625-0.19531 0.66016 2.5039 2.9414 4.3555 5.6523 4.3555 1.7031 0 3.2344-0.73828 4.3047-1.9023 1.0664 1.168 2.5977 1.9023 4.3008 1.9023 2.7109 0 4.9961-1.8516 5.6523-4.3555 0.50781 0.13281 1.0312 0.19531 1.5625 0.19531 3.5273 0 6.3945-2.8672 6.3945-6.3945 0-0.23047-0.015625-0.45703-0.039063-0.68359-0.003906-0.035156-0.011718-0.074218-0.015625-0.10937-0.023437-0.19141-0.054687-0.37891-0.09375-0.56641-0.007812-0.03125-0.015625-0.0625-0.023437-0.097656-0.042969-0.1875-0.097656-0.375-0.15625-0.55859-0.011719-0.027343-0.019532-0.058593-0.03125-0.089843-0.0625-0.18359-0.13672-0.36328-0.21484-0.53906-0.003906-0.011719-0.007812-0.019531-0.011719-0.03125 3.1328-0.87109 5.4375-3.7539 5.4375-7.1562 0-0.37109-0.035156-0.74219-0.09375-1.1094h8.8359c4.8203 0 8.7383-3.9219 8.7383-8.7383l-0.003906-10.266 14.895-17.77c0.03125-0.035156 0.0625-0.070312 0.089844-0.10547l7.6758-9.1523c0.019531-0.023438 0.054688-0.058594 0.074219-0.082031 2.3398-2.7891 3.4531-6.3203 3.1367-9.9492zm-61.934 29.352c1.2266 0 2.2539 0.83984 2.5547 1.9766-0.66406 0.53516-1.2188 1.2148-1.5938 2.0156-0.042969 0.089844-0.082031 0.18359-0.12109 0.27734-0.31641 0.76562 0.050781 1.6445 0.81641 1.957 0.76562 0.31641 1.6445-0.050781 1.957-0.81641l0.066406-0.15234c0.26172-0.5625 0.71875-0.98047 1.2539-1.2461 0.16406-0.082031 0.32812-0.14844 0.49219-0.19531 0.21094-0.054688 0.42969-0.097657 0.65625-0.097657 1.4609 0 2.6484 1.1875 2.6484 2.6484 0 0.30078-0.058593 0.60156-0.17969 0.91797-0.17578 0.47266-0.10547 1 0.1875 1.4062 0.29688 0.40625 0.76562 0.64453 1.2773 0.62109 0.09375-0.003906 0.18359-0.015624 0.21094-0.027343 2.0391 0 3.6953 1.6562 3.6953 3.6953 0 1.6211-1.0391 3.0391-2.5859 3.5273-0.78906 0.25-1.2305 1.0898-0.98047 1.8828 0.25 0.78906 1.0938 1.2266 1.8828 0.98047 0.88281-0.27734 1.6602-0.73828 2.3281-1.3086 1.0859 0.67578 1.7773 1.8633 1.7773 3.1836 0 1.0039-0.39062 1.9492-1.1133 2.6719-0.050781 0.054688-0.10547 0.10547-0.17969 0.16406-0.875 0.76562-2.1289 1.0703-3.2383 0.84375-1.7305-0.35938-2.9883-1.9062-2.9883-3.6797 0-0.82812-0.67187-1.5-1.5-1.5-0.82812 0-1.5 0.67188-1.5 1.5 0 0.10938 0.023438 0.21875 0.027344 0.32422-0.32812-0.011719-0.65234-0.058594-0.96094-0.16797-1.1289-0.39844-1.9609-1.375-2.168-2.5547-0.23047-1.3125 0.34766-2.625 1.4648-3.3477 0.375-0.23828 0.78516-0.39844 1.2227-0.47656 0.81641-0.14062 1.3633-0.91797 1.2227-1.7344s-0.91797-1.3633-1.7344-1.2227c-0.83594 0.14453-1.6172 0.44922-2.3359 0.91016-2.1328 1.3789-3.2305 3.8867-2.793 6.3867 0.058594 0.32812 0.14844 0.64453 0.25391 0.95312-0.57031 1.0234-1.5469 1.7305-2.6758 1.9805l0.003906-10.066c0.62109-0.79297 1.6445-1.1953 2.6523-1.0039 0.81641 0.15234 1.5977-0.38281 1.75-1.1992 0.15234-0.8125-0.38672-1.5977-1.1992-1.75-1.1055-0.20703-2.2109-0.066406-3.207 0.33984v-5.9648c0.003906-1.4609 1.1914-2.6523 2.6523-2.6523zm-18.672 9.2852c0.089843 0.011719 0.17969 0.023437 0.27344 0.027343 0.51953 0.023438 0.98047-0.21094 1.2773-0.61719s0.36719-0.93359 0.19141-1.4062c-0.12109-0.32031-0.17969-0.62109-0.17969-0.92188 0-1.4609 1.1875-2.6484 2.6445-2.6484 0.22656 0 0.44141 0.039063 0.65625 0.097657 0.16016 0.046875 0.32031 0.11328 0.48047 0.19141 0.54297 0.26562 1.0078 0.6875 1.2695 1.2578l0.066406 0.15234c0.32031 0.76562 1.1992 1.1211 1.9648 0.80469 0.76562-0.32031 1.125-1.1992 0.80469-1.9648-0.039063-0.09375-0.078126-0.1875-0.11719-0.26953-0.37109-0.80078-0.92578-1.4805-1.5898-2.0156 0.30078-1.1367 1.3281-1.9766 2.5547-1.9766 1.4609 0 2.6484 1.1875 2.6484 2.6484v5.9688c-0.99609-0.40234-2.1016-0.54297-3.207-0.33984-0.8125 0.15234-1.3516 0.9375-1.1992 1.75 0.15234 0.81641 0.9375 1.3555 1.75 1.1992 1.0117-0.19141 2.0312 0.21094 2.6523 1.0078v3.332c-0.40625 0.52734-0.98438 0.90234-1.6445 1.0234-0.25781 0.050781-0.51562 0.0625-0.76562 0.035156-0.050781-0.007812-0.09375 0-0.14453-0.003906-0.40234-1.4688-1.332-2.7773-2.668-3.6406-0.71094-0.45703-1.4961-0.76172-2.332-0.90625-0.81641-0.14453-1.5938 0.40234-1.7344 1.2227-0.14062 0.81641 0.40625 1.5938 1.2227 1.7344 0.4375 0.074219 0.85156 0.23438 1.2188 0.47266 1.1211 0.72266 1.6953 2.0391 1.4688 3.3477-0.20703 1.1797-1.0352 2.1562-2.168 2.5547-0.30859 0.10547-0.62891 0.15234-0.95703 0.16797 0.003906-0.10938 0.027343-0.21484 0.027343-0.32422 0-0.82812-0.67187-1.5-1.5-1.5-0.82812 0-1.5 0.67188-1.5 1.5 0 1.7734-1.2578 3.3203-2.9844 3.6797-0.25391 0.050781-0.51172 0.078125-0.77344 0.078125-2.0742 0-3.7617-1.6875-3.7617-3.7578 0-1.3203 0.69141-2.5078 1.7773-3.1836 0.67188 0.57031 1.4492 1.0312 2.332 1.3125 0.78906 0.24609 1.6328-0.1875 1.8828-0.98047 0.25-0.78906-0.19141-1.6328-0.98047-1.8828-1.5469-0.48828-2.5859-1.9062-2.5859-3.5273-0.003906-2.0391 1.6523-3.6992 3.6289-3.6992zm10.18 35.926c-1.5664 0-2.8438-1.2734-2.8438-2.8438 0-0.17578 0.019532-0.35547 0.054688-0.54297 0.12109-0.61328-0.14844-1.2344-0.67969-1.5625-0.52734-0.32812-1.207-0.29688-1.7031 0.078125-0.60938 0.46484-1.3164 0.71094-2.0469 0.71094-1.8711 0-3.3945-1.5234-3.3945-3.3945 0-0.25781 0.035156-0.51172 0.09375-0.76172 0.011719-0.058594 0.035156-0.10938 0.050781-0.16797 0.054688-0.1875 0.12109-0.375 0.21094-0.55469 0.027344-0.054688 0.058594-0.10547 0.085937-0.16016 0.097657-0.17578 0.21094-0.34375 0.34375-0.5 0.03125-0.039062 0.0625-0.078125 0.097657-0.11719 0.16797-0.1875 0.35547-0.35938 0.5625-0.50781 0.003906 0 0.003906-0.003906 0.003906-0.003906 0.55469-0.39062 1.2227-0.62109 1.9492-0.62109 0.47266 0 0.92969 0.097657 1.3516 0.27734 0.007813 0.003906 0.015625 0.007813 0.019531 0.007813 0.41797 0.18359 0.80078 0.45312 1.1211 0.80469 0.5625 0.60547 1.5117 0.64062 2.1211 0.078125 0.60547-0.5625 0.64062-1.5117 0.078125-2.1211-0.42188-0.45312-0.90234-0.83203-1.4297-1.1445-0.023437-0.11719-0.039062-0.23438-0.039062-0.35547 0-0.73828 0.44141-1.4023 1.125-1.6914 0.22266-0.09375 0.46484-0.14453 0.71094-0.14453 0.82812 0 1.5-0.67188 1.5-1.5s-0.67188-1.5-1.5-1.5c-0.65234 0-1.2891 0.12891-1.8828 0.38281-1.6289 0.6875-2.7227 2.1914-2.9141 3.918-0.089843-0.003906-0.17578-0.015625-0.26562-0.015625-1.2227 0-2.3633 0.35156-3.3359 0.94922-0.16016 0.019531-0.33203 0.042968-0.47656 0.042968-2.4414 0-4.4297-1.9883-4.4297-4.4297 0-0.16797 0.011719-0.33594 0.03125-0.50391 0.89453 0.4375 1.8906 0.6875 2.9492 0.6875 0.46484 0 0.92578-0.046875 1.3828-0.14062 1.9648-0.40625 3.5859-1.6641 4.5195-3.3359 0.23438 0.027344 0.47266 0.0625 0.70703 0.0625 0.70703 0 1.4141-0.11719 2.0781-0.35547 2.0703-0.72656 3.6016-2.4844 4.0664-4.6172 0.11328 0.007812 0.22266 0.015625 0.33594 0.015625 0.35156 0 0.70703-0.03125 1.0586-0.097656 0.37891-0.070313 0.74219-0.18359 1.0938-0.32422v10.109l0.042969 6.7578-0.007813 1.1562c-0.83203-0.45313-1.7852-0.71484-2.7969-0.71484-0.82812 0-1.5 0.67188-1.5 1.5s0.67188 1.5 1.5 1.5c1.3516 0 2.4805 0.94922 2.7695 2.2188l-0.003907 0.60547v0.019532c0 0.17578 0.011719 0.34766 0.027344 0.51953-0.25 1.3242-1.4062 2.3281-2.793 2.3281zm19.633-12.961c-0.14453 0-0.3125-0.023437-0.47656-0.046874-0.97266-0.59766-2.1094-0.94922-3.3359-0.94922-0.089844 0-0.17969 0.011719-0.26562 0.015625-0.19141-1.7266-1.2852-3.2305-2.9102-3.918-0.59766-0.25391-1.2305-0.38281-1.8867-0.38281-0.82812 0-1.5 0.67188-1.5 1.5 0 0.82813 0.67188 1.5 1.5 1.5 0.24609 0 0.48828 0.050782 0.71484 0.14453 0.68359 0.28906 1.1211 0.95312 1.1211 1.6914 0 0.12109-0.015625 0.23828-0.039062 0.35547-0.52344 0.30859-1.0078 0.69141-1.4297 1.1445-0.5625 0.60547-0.52734 1.5547 0.078125 2.1211 0.60547 0.5625 1.5586 0.52734 2.1211-0.078125 0.32422-0.34766 0.70312-0.61719 1.1211-0.80078 0.007812-0.003907 0.015625-0.007813 0.023437-0.011719 0.42188-0.18359 0.875-0.27734 1.3516-0.27734 0.72656 0 1.3945 0.23438 1.9492 0.62109 0.003906 0 0.003906 0.003906 0.003906 0.003906 0.21094 0.14844 0.39453 0.32031 0.5625 0.50781 0.035156 0.035156 0.0625 0.078124 0.097656 0.11719 0.12891 0.15625 0.24219 0.32422 0.33984 0.5 0.03125 0.054687 0.0625 0.10547 0.089844 0.16406 0.085937 0.17578 0.15234 0.36328 0.21094 0.55078 0.015625 0.058593 0.039063 0.10938 0.054687 0.16797 0.058594 0.24609 0.09375 0.5 0.09375 0.76172 0 1.8711-1.5234 3.3945-3.3945 3.3945-0.73047 0-1.4375-0.24609-2.0469-0.71094-0.49609-0.37891-1.1719-0.40625-1.6992-0.078125-0.52734 0.32812-0.80078 0.94922-0.67969 1.5625 0.035156 0.19141 0.054688 0.375 0.054688 0.54688 0 1.5664-1.2773 2.8438-2.8438 2.8438-1.3906 0-2.543-1.0039-2.7891-2.3203 0.015625-0.17188 0.027344-0.34766 0.027344-0.51953v-0.019531l-0.003907-0.60547c0.28516-1.2695 1.4141-2.2188 2.7695-2.2188 0.82812 0 1.5-0.67188 1.5-1.5s-0.67188-1.5-1.5-1.5c-1.0117 0-1.9648 0.26172-2.7969 0.71484l-0.007813-1.1562 0.042969-6.7656v-3.9688c1.7461-0.21875 3.3125-1.0625 4.4414-2.3594 0.60547 0.54297 1.3164 0.97266 2.1094 1.25 0.66797 0.23438 1.3711 0.35547 2.082 0.35547 0.23437 0 0.47266-0.035157 0.70703-0.0625 0.93359 1.6719 2.5547 2.9297 4.5195 3.3359 0.44922 0.09375 0.91406 0.14062 1.3789 0.14062 1.0352 0 2.0352-0.26172 2.9453-0.70312 0.019531 0.17188 0.03125 0.34766 0.03125 0.51953-0.007813 2.4375-1.9961 4.4219-4.4375 4.4219zm45.422-53.648c-0.023438 0.023437-0.054688 0.058594-0.074219 0.082031l-7.7969 9.293c-0.003906 0.003906-0.007812 0.007813-0.011719 0.011719l-14.129 16.836-14.125-16.836-0.007813-0.007813c-0.007812-0.011719-0.019531-0.019531-0.027343-0.03125l-7.7344-9.2148c-0.015625-0.019532-0.03125-0.042969-0.050782-0.0625-1.8242-2.1758-2.6953-4.9297-2.4492-7.7578s1.582-5.3906 3.7578-7.2148c1.9102-1.6016 4.332-2.4844 6.8242-2.4844 3.1523 0 6.125 1.3828 8.1484 3.7969 0.019532 0.019531 0.035157 0.039063 0.054688 0.058594l4.4609 5.3164c0.28516 0.33984 0.70703 0.53516 1.1484 0.53516s0.86328-0.19531 1.1484-0.53516l4.5195-5.3789c2.0234-2.4141 4.9922-3.7969 8.1445-3.7969 2.4883 0 4.9141 0.88281 6.8242 2.4844 2.1758 1.8242 3.5117 4.3867 3.7578 7.2148s-0.625 5.5859-2.3828 7.6914z"/>
  <path d="m85.488 13.551c-1.5273-1.2812-3.1562-1.5508-4.2578-1.5508-1.9688 0-3.8203 0.86328-5.0859 2.3711-0.53125 0.63672-0.44922 1.582 0.1875 2.1133 0.63672 0.53516 1.582 0.44922 2.1133-0.1875 0.69141-0.82422 1.707-1.2969 2.7852-1.2969 0.60156 0 1.4922 0.14844 2.3281 0.84766 0.74219 0.62109 1.1992 1.4961 1.2812 2.4648 0.082031 0.94141-0.19922 1.8633-0.79297 2.5977-0.51953 0.64453-0.42188 1.5898 0.22266 2.1094 0.27734 0.22656 0.60938 0.33594 0.94141 0.33594 0.4375 0 0.87109-0.19141 1.168-0.55859 1.0859-1.3398 1.6016-3.0273 1.4492-4.7461-0.15234-1.7656-0.98438-3.3633-2.3398-4.5z"/>
 </g>
</svg>
