<?xml version="1.0" encoding="UTF-8"?>
<svg width="48" height="48" version="1.1" viewBox="0 0 100 100" xmlns="http://www.w3.org/2000/svg" fill="#351449">
 <g>
  <path d="m87.5 25c-3.3906-0.011719-6.5977 1.5547-8.668 4.2383-2.0742 2.6875-2.7773 6.1836-1.9023 9.4648l-9.8906 4.9375c-4.0508-6.7031-10.746-11.379-18.434-12.871l1.8516-7.3867c5.7227 0.58984 10.926-3.3359 11.926-9 1-5.6641-2.5469-11.137-8.125-12.539-5.5781-1.3984-11.289 1.7461-13.086 7.2109-1.793 5.4609 0.9375 11.383 6.2578 13.566l-1.9219 7.6641c-0.98828-0.097656-1.9883-0.15625-3.0078-0.15625h-13.125c-15.336 0-27.812 11.426-27.812 25.473 0 12.367 9.7539 22.922 22.918 25.074v0.003907c-0.29297 1.3086-0.86719 2.5352-1.6836 3.5977-1.8906 2.2617-4.6211 3.6562-7.5586 3.8633-0.62109 0.054687-1.1641 0.44531-1.4062 1.0195-0.21094 0.57422-0.082031 1.2188 0.33594 1.6602 0.61719 0.64844 3.6836 1.3555 7.2812 1.3555h0.003906c2.3164 0.027344 4.625-0.30469 6.8398-0.99219 4.9141-1.707 9.1406-4.957 12.051-9.2656l0.66406-0.83984h1.4961l-0.003906-0.003906c7.8867 0.0625 15.453-3.1016 20.941-8.7617l8.5078 9.457h0.003906c-3.0312 4.8984-1.7617 11.305 2.9062 14.676 4.668 3.375 11.148 2.5703 14.848-1.8438 3.6992-4.4102 3.3633-10.934-0.76953-14.941-4.1328-4.0078-10.66-4.1445-14.957-0.30859l-8.4883-9.4375c3.1133-4.1211 4.8047-9.1445 4.8203-14.312-0.007812-3.1484-0.65234-6.2656-1.8906-9.1602l9.7305-4.8555c2.0078 3.3242 5.6328 5.332 9.5195 5.2734s7.4492-2.1758 9.3555-5.5586c1.9102-3.3867 1.8789-7.5312-0.085938-10.887-1.9609-3.3555-5.5547-5.418-9.4414-5.4141zm-40.402-6.1055v-1.0391c0.003906-1.3555 1.1016-2.4531 2.457-2.4531h4.0195-0.003907c1.3555 0 2.4531 1.0977 2.457 2.4531v1.0391c-2.6758 1.8906-6.2539 1.8906-8.9297 0zm2.6797-8.4023c0-0.72266 0.43359-1.375 1.1016-1.6523 0.66797-0.27734 1.4336-0.125 1.9453 0.38672 0.51172 0.51172 0.66406 1.2812 0.38672 1.9453-0.27344 0.66797-0.92578 1.1055-1.6484 1.1055-0.98438 0-1.7852-0.80078-1.7852-1.7852zm-6.0273 2.0078c-0.007812-2.3594 1.0508-4.5977 2.8789-6.0898 1.832-1.4883 4.2383-2.0703 6.5469-1.582 2.3086 0.48438 4.2773 1.9922 5.3477 4.0938 1.0703 2.1055 1.1367 4.5781 0.17187 6.7344-0.55078-1.2734-1.5586-2.293-2.8203-2.8672 0.38672-0.70312 0.59375-1.4961 0.59766-2.2969 0-2.7148-2.1992-4.9102-4.9102-4.9102s-4.9102 2.1953-4.9102 4.9102c0.003906 0.80078 0.21094 1.5938 0.59766 2.2969-1.2617 0.57422-2.2695 1.5938-2.8203 2.8672-0.44531-0.99219-0.67578-2.0664-0.67969-3.1562zm33.035 81.395v-1.0391c0.003906-1.3555 1.1016-2.4531 2.457-2.4531h4.0195-0.003907c1.3555 0 2.4531 1.0977 2.457 2.4531v1.0391c-2.6758 1.8906-6.2539 1.8906-8.9297 0zm2.6797-8.4023c0-0.72266 0.43359-1.375 1.1016-1.6523 0.66797-0.27734 1.4336-0.125 1.9453 0.38672 0.51172 0.51172 0.66406 1.2812 0.38672 1.9453-0.27344 0.66797-0.92578 1.1055-1.6484 1.1055-0.98438 0-1.7852-0.80078-1.7852-1.7852zm1.7852-5.8047c2.6445-0.007812 5.1133 1.3242 6.5547 3.543 1.4414 2.2148 1.6602 5.0117 0.57812 7.4258-0.55078-1.2734-1.5586-2.293-2.8203-2.8672 0.38672-0.70312 0.59375-1.4961 0.59766-2.2969 0-2.7148-2.1992-4.9102-4.9102-4.9102s-4.9102 2.1953-4.9102 4.9102c0.003906 0.80078 0.21094 1.5938 0.59766 2.2969-1.2617 0.57422-2.2695 1.5938-2.8203 2.8672-1.082-2.4141-0.86328-5.2109 0.57812-7.4258 1.4414-2.2188 3.9102-3.5508 6.5547-3.543zm-38.75-1.7383h-2.2539c-0.47656 0-0.92969 0.21875-1.2266 0.59766l-1.1836 1.5078c-2.543 3.7773-6.2344 6.6367-10.527 8.1602-1.6836 0.53516-3.4375 0.82031-5.2031 0.84766 1.2148-0.76562 2.2812-1.7383 3.1602-2.8711 1.4258-1.8594 2.3008-4.082 2.5195-6.4141 0.023438-0.26953-0.019531-0.54297-0.12891-0.78906l-0.13672-0.30078c-0.22656-0.50391-0.69922-0.85156-1.2461-0.91406-12.305-1.4141-21.586-10.945-21.586-22.172 0-12.324 11.074-22.348 24.688-22.348h13.125c13.613 0 24.688 10.023 24.688 22.348 0 12.324-11.074 22.348-24.688 22.348zm40.535-35.617v-1.0391c0.003906-1.3555 1.1016-2.4531 2.457-2.4531h4.0195-0.003907c1.3555 0 2.4531 1.0977 2.457 2.4531v1.0391c-2.6758 1.8906-6.2539 1.8906-8.9297 0zm2.6797-8.4023c0-0.72266 0.43359-1.375 1.1016-1.6523 0.66797-0.27734 1.4336-0.125 1.9453 0.38672 0.51172 0.51172 0.66406 1.2812 0.38672 1.9453-0.27344 0.66797-0.92578 1.1055-1.6484 1.1055-0.98438 0-1.7852-0.80078-1.7852-1.7852zm8.918 5.1641c-0.55078-1.2734-1.5586-2.293-2.8203-2.8672 0.38672-0.70312 0.59375-1.4961 0.59766-2.2969 0-2.7148-2.1992-4.9102-4.9102-4.9102s-4.9102 2.1953-4.9102 4.9102c0.003906 0.80078 0.21094 1.5938 0.59766 2.2969-1.2617 0.57422-2.2695 1.5938-2.8203 2.8672-1.0781-2.418-0.86328-5.2148 0.57812-7.4375 1.4414-2.2188 3.9062-3.5625 6.5547-3.5625s5.1133 1.3438 6.5547 3.5625c1.4414 2.2227 1.6562 5.0195 0.57812 7.4375z"/>
  <path d="m20.312 50.441c-1.8945 0-3.6055 1.1406-4.332 2.8945-0.72266 1.75-0.32422 3.7656 1.0156 5.1094 1.3438 1.3398 3.3594 1.7383 5.1094 1.0156 1.7539-0.72656 2.8945-2.4375 2.8945-4.332-0.003906-2.5859-2.1016-4.6836-4.6875-4.6875zm0 6.25c-0.63281 0-1.2031-0.37891-1.4453-0.96484-0.23828-0.58203-0.10547-1.2539 0.33984-1.7031 0.44922-0.44531 1.1211-0.57813 1.7031-0.33594 0.58594 0.23828 0.96484 0.80859 0.96484 1.4414 0 0.86328-0.69922 1.5625-1.5625 1.5625z"/>
  <path d="m35.938 50.441c-1.8945 0-3.6055 1.1406-4.332 2.8945-0.72266 1.75-0.32422 3.7656 1.0156 5.1094 1.3438 1.3398 3.3594 1.7383 5.1094 1.0156 1.7539-0.72656 2.8945-2.4375 2.8945-4.332-0.003906-2.5859-2.1016-4.6836-4.6875-4.6875zm0 6.25c-0.63281 0-1.2031-0.37891-1.4453-0.96484-0.23828-0.58203-0.10547-1.2539 0.33984-1.7031 0.44922-0.44531 1.1211-0.57813 1.7031-0.33594 0.58594 0.23828 0.96484 0.80859 0.96484 1.4414 0 0.86328-0.69922 1.5625-1.5625 1.5625z"/>
  <path d="m51.562 50.441c-1.8945 0-3.6055 1.1406-4.332 2.8945-0.72266 1.75-0.32422 3.7656 1.0156 5.1094 1.3438 1.3398 3.3594 1.7383 5.1094 1.0156 1.7539-0.72656 2.8945-2.4375 2.8945-4.332-0.003906-2.5859-2.1016-4.6836-4.6875-4.6875zm0 6.25c-0.63281 0-1.2031-0.37891-1.4453-0.96484-0.23828-0.58203-0.10547-1.2539 0.33984-1.7031 0.44922-0.44531 1.1211-0.57813 1.7031-0.33594 0.58594 0.23828 0.96484 0.80859 0.96484 1.4414 0 0.86328-0.69922 1.5625-1.5625 1.5625z"/>
 </g>
</svg>
