<?xml version="1.0" encoding="UTF-8"?>
<svg width="48" height="48" version="1.1" viewBox="0 0 100 100" xmlns="http://www.w3.org/2000/svg" fill="#141649">
 <g>
  <path d="m74.617 43.91c-1.0586-11.824-10.797-21.355-22.652-22.176-1.1641-0.082031-2.3008-0.082031-3.4688 0-11.855 0.81641-21.594 10.352-22.652 22.176-0.68359 7.6445 2.1367 15.008 7.7344 20.203 3.0078 2.7891 4.7344 6.6992 4.7344 10.73v9.5156c0 3.0625 2.3047 5.6016 5.2734 5.9648 0.91797 2.4727 3.4609 4.6758 6.6445 4.6758 3.1836 0 5.7266-2.2031 6.6445-4.6758 2.9688-0.36328 5.2734-2.8984 5.2734-5.9648v-9.5156c0-4.0273 1.7266-7.9414 4.7344-10.73 5.5977-5.1953 8.418-12.559 7.7344-20.203zm-16.469 32.434v1.5078h-15.836v-1.5078zm-12.539-25.082h-1.9609c-1.0781 0-1.9609-0.87891-1.9609-1.9609 0-1.0781 0.87891-1.9609 1.9609-1.9609 1.082 0 1.9609 0.87891 1.9609 1.9609zm3 3h3.2383v19.082h-3.2383zm-6.2969 28.098v-1.5078h15.836v1.5078zm7.918 8.6406c-1.1484 0-2.1367-0.76172-2.6445-1.5742h5.2852c-0.50391 0.8125-1.4922 1.5742-2.6406 1.5742zm5.9102-4.6328h-0.89844c-0.15625 0-0.30859 0.023437-0.45313 0.054687h-9.1133c-0.14453-0.035156-0.29688-0.054687-0.45312-0.054687h-0.90234c-0.74219 0-1.3828-0.40625-1.7305-1.0078h15.281c-0.34766 0.60156-0.98828 1.0078-1.7305 1.0078zm8.0195-25.188c-3.4492 3.1992-5.5508 7.5664-5.9336 12.164h-3.375v-19.082h1.9609c2.7344 0 4.9609-2.2266 4.9609-4.9609s-2.2266-4.9609-4.9609-4.9609-4.9609 2.2266-4.9609 4.9609v1.9609h-3.2383v-1.9609c0-2.7344-2.2266-4.9609-4.9609-4.9609s-4.9609 2.2266-4.9609 4.9609 2.2266 4.9609 4.9609 4.9609h1.9609v19.082h-3.3789c-0.38281-4.5977-2.4844-8.9648-5.9336-12.164-4.6875-4.3477-7.0469-10.512-6.4727-16.914 0.88672-9.8867 9.0273-17.855 18.941-18.539 0.49219-0.035156 0.97656-0.042968 1.4609-0.042968s0.96875 0.011718 1.4609 0.042968c9.9141 0.68359 18.059 8.6562 18.941 18.543 0.57031 6.3984-1.7852 12.566-6.4727 16.91zm-9.3086-9.918v-1.9609c0-1.082 0.87891-1.9609 1.9609-1.9609 1.0781 0 1.9609 0.87891 1.9609 1.9609 0 1.0781-0.87891 1.9609-1.9609 1.9609z"/>
  <path d="m50.23 15.117c0.87109 0 1.5859-0.71484 1.5859-1.5859v-6.9453c0-0.87109-0.71484-1.5859-1.5859-1.5859-0.87109 0-1.5859 0.71484-1.5859 1.5859v6.9492c0 0.87109 0.71484 1.582 1.5859 1.582z"/>
  <path d="m74.551 13.051c-0.70312-0.51172-1.7031-0.35547-2.2148 0.35156l-4.0859 5.6211c-0.51172 0.70703-0.35547 1.7031 0.35156 2.2148 0.70703 0.51172 1.7031 0.35547 2.2148-0.35156l4.0859-5.6211c0.51172-0.70312 0.35547-1.6992-0.35156-2.2148z"/>
  <path d="m81.871 38.008l6.6094-2.1484c0.82812-0.26953 1.2852-1.168 1.0195-1.9961-0.26953-0.82812-1.168-1.2852-1.9961-1.0195l-6.6094 2.1484c-0.82812 0.26953-1.2852 1.168-1.0195 1.9961 0.26562 0.83203 1.1641 1.2891 1.9961 1.0195z"/>
  <path d="m88.336 57.484l-6.6094-2.1484c-0.82812-0.26953-1.7305 0.1875-1.9961 1.0195-0.26953 0.82812 0.1875 1.7266 1.0195 1.9961l6.6094 2.1484c0.82812 0.26953 1.7266-0.1875 1.9961-1.0195 0.26562-0.82812-0.19141-1.7266-1.0195-1.9961z"/>
  <path d="m70.445 72.289c-0.51172-0.70312-1.5078-0.86328-2.2148-0.35156-0.70312 0.51172-0.86328 1.5078-0.35156 2.2148l4.0859 5.6211c0.51172 0.70312 1.5078 0.86328 2.2148 0.35156 0.70312-0.51172 0.86328-1.5078 0.35156-2.2148z"/>
  <path d="m31.395 71.668c-0.70703-0.51172-1.7031-0.35547-2.2148 0.35156l-4.0859 5.6211c-0.51172 0.70703-0.35547 1.7031 0.35156 2.2148 0.70703 0.51172 1.7031 0.35547 2.2148-0.35156l4.0859-5.6211c0.51172-0.70703 0.35547-1.7031-0.35156-2.2148z"/>
  <path d="m20.129 55.914c-0.26953-0.82812-1.168-1.2891-1.9961-1.0195l-6.6094 2.1484c-0.82813 0.26953-1.2891 1.168-1.0195 1.9961 0.26953 0.82813 1.168 1.2852 1.9961 1.0195l6.6094-2.1484c0.83203-0.26562 1.2891-1.1641 1.0195-1.9961z"/>
  <path d="m19.254 34.555l-6.6094-2.1484c-0.82812-0.26953-1.7266 0.1875-1.9961 1.0195-0.26953 0.82812 0.1875 1.7266 1.0195 1.9961l6.6094 2.1484c0.82812 0.26953 1.7305-0.1875 1.9961-1.0195 0.26562-0.82812-0.19141-1.7305-1.0195-1.9961z"/>
  <path d="m29.555 20.617c0.51172 0.70312 1.5078 0.86328 2.2148 0.35156s0.86328-1.5078 0.35156-2.2148l-4.0859-5.6211c-0.51172-0.70703-1.5078-0.86328-2.2148-0.35156-0.70703 0.51172-0.86328 1.5078-0.35156 2.2148z"/>
 </g>
</svg>
